<svg width="32" height="40" viewBox="0 0 32 40" fill="none" xmlns="http://www.w3.org/2000/svg">
<path d="M16.0306 5.5047e-05C24.2041 0.0223355 31.0275 6.17285 31.9243 14.2885C32.2073 16.8474 31.6737 19.2481 30.7111 21.5853C29.0479 25.6226 26.6539 29.2164 23.9613 32.6242C22.2156 34.8333 20.3585 36.9444 18.1884 38.7546C17.7406 39.129 17.2382 39.4409 16.7502 39.7628C16.2612 40.0859 15.7443 40.0937 15.2786 39.7361C14.4576 39.1033 13.6009 38.5006 12.8612 37.7799C8.63123 33.6524 5.07639 29.0092 2.3359 23.7621C1.34219 21.8594 0.52561 19.8809 0.169123 17.7486C-0.234153 15.3401 0.11231 12.9929 0.905493 10.708C3.13465 4.29461 9.23949 -0.0177693 16.0306 5.5047e-05ZM28.6836 16.0966C28.6446 8.99578 22.9809 3.35883 15.9236 3.39671C8.89637 3.43347 3.29953 9.1328 3.32849 16.2213C3.35634 23.1171 9.09912 28.7674 16.0495 28.7385C23.0266 28.7095 28.7226 23.0102 28.6836 16.0966Z" fill="url(#paint0_linear_2406_9397)"/>
<path d="M28.6837 16.0965C28.7216 23.0101 23.0267 28.7095 16.0507 28.7384C9.10034 28.7674 3.35755 23.1171 3.3297 16.2213C3.30074 9.13277 8.89758 3.43344 15.9248 3.39667C22.981 3.3588 28.6447 8.99575 28.6837 16.0965ZM7.84929 17.3888C7.84929 17.9269 7.84149 18.4649 7.85151 19.003C7.85931 19.4397 8.07655 19.6458 8.51659 19.6558C8.82183 19.6625 9.12819 19.6681 9.43343 19.6536C9.654 19.6436 9.77543 19.706 9.87904 19.9254C10.2177 20.6462 10.7892 21.0795 11.6035 21.084C12.4457 21.0885 13.0395 20.6596 13.3838 19.8998C13.4684 19.7126 13.5698 19.6525 13.7692 19.6536C15.2364 19.6614 16.7046 19.6514 18.1718 19.6681C18.301 19.6692 18.4871 19.7895 18.5461 19.9054C18.9249 20.6451 19.4997 21.0907 20.3419 21.084C21.1685 21.0773 21.7467 20.6362 22.0854 19.8953C22.1734 19.7037 22.2803 19.648 22.4742 19.6536C22.8162 19.6647 23.1593 19.6636 23.5013 19.6547C23.9391 19.6436 24.1552 19.433 24.1586 18.993C24.1664 17.9413 24.1753 16.8886 24.1552 15.8381C24.1374 14.8622 23.4333 14.118 22.4641 14.0467C22.2057 14.0278 22.1255 13.9064 22.0286 13.7003C21.7356 13.0708 21.4504 12.4325 21.0883 11.8432C20.7419 11.2806 20.2027 11.0188 19.5075 11.0288C17.783 11.0533 16.0585 11.0589 14.334 11.0266C13.6288 11.0132 13.0718 11.2561 12.6875 11.8053C12.2619 12.4124 11.8976 13.0653 11.5367 13.7136C11.4153 13.932 11.305 14.0501 11.0387 14.0367C10.5998 14.0144 10.1587 14.0256 9.71862 14.0322C8.64136 14.0489 7.87491 14.8076 7.85263 15.8849C7.84149 16.3862 7.8504 16.8875 7.84929 17.3888Z" fill="white"/>
<path d="M12.4001 19.0966C12.4001 19.5478 12.0648 19.8921 11.6247 19.8921C11.1914 19.8921 10.8505 19.5367 10.8583 19.0911C10.8661 18.6544 11.1914 18.3191 11.6114 18.3157C12.0514 18.3113 12.4001 18.6577 12.4001 19.0966Z" fill="white"/>
<path d="M20.3117 18.3158C20.7551 18.3091 21.086 18.6433 21.0882 19.1012C21.0904 19.5568 20.764 19.891 20.3173 19.8921C19.8984 19.8932 19.5598 19.5557 19.5497 19.1257C19.5408 18.6823 19.8784 18.3225 20.3117 18.3158Z" fill="white"/>
<path d="M16.0133 28.1914C22.7049 28.1914 28.1294 22.7235 28.1294 15.9784C28.1294 9.23333 22.7049 3.76538 16.0133 3.76538C9.32178 3.76538 3.89722 9.23333 3.89722 15.9784C3.89722 22.7235 9.32178 28.1914 16.0133 28.1914Z" fill="white"/>
<path d="M16.1101 22.0186C16.0288 22.2938 15.9085 22.56 15.875 22.8352C15.7759 23.6495 15.9786 24.3859 16.5256 25.0142C16.5668 25.061 16.578 25.1345 16.6036 25.1958C16.5446 25.2136 16.4866 25.2448 16.4265 25.247C16.0912 25.2582 15.7558 25.2604 15.4216 25.2716C15.3191 25.2749 15.2824 25.2326 15.2623 25.1368C15.1643 24.68 15.0573 24.2255 14.9604 23.7687C14.9415 23.6785 14.8991 23.6473 14.8111 23.6317C14.4613 23.5693 14.1126 23.5036 13.7651 23.4267C13.6659 23.4045 13.6202 23.4312 13.5679 23.5092C13.2872 23.9258 13.002 24.338 12.7001 24.778C12.3213 24.6098 11.9459 24.4461 11.5749 24.2734C11.5448 24.26 11.5248 24.1809 11.5326 24.1386C11.6172 23.6896 11.703 23.2407 11.8033 22.7951C11.8345 22.6558 11.7977 22.5923 11.6807 22.5166C11.4123 22.3439 11.1549 22.1523 10.9009 21.9585C10.8151 21.8927 10.7572 21.8816 10.6625 21.9417C10.2815 22.1846 9.89274 22.4152 9.51063 22.6569C9.41928 22.7149 9.35801 22.7249 9.27891 22.6369C9.01712 22.3473 8.74975 22.0632 8.47681 21.7702C8.68291 21.4794 8.87563 21.2065 9.06836 20.9347C9.17419 20.7854 9.28671 20.6406 9.38251 20.4857C9.40814 20.4434 9.41037 20.361 9.38697 20.3175C9.21875 20.0156 9.03494 19.7237 8.87118 19.4207C8.81993 19.326 8.76089 19.3227 8.67511 19.3349C8.22727 19.3973 7.77832 19.4519 7.3316 19.521C7.21129 19.5399 7.1567 19.5054 7.12216 19.3929C7.01856 19.0642 6.90939 18.7356 6.79798 18.4092C6.76011 18.3 6.78239 18.2387 6.88822 18.1786C7.29038 17.9502 7.68363 17.7085 8.08356 17.4767C8.166 17.4288 8.1894 17.3809 8.17603 17.2829C8.13258 16.9665 8.09916 16.6479 8.07354 16.3293C8.06574 16.2368 8.03566 16.1967 7.94877 16.1722C7.50427 16.0452 7.06201 15.9104 6.61751 15.7857C6.51614 15.7578 6.47492 15.7177 6.48829 15.6085C6.53062 15.2454 6.56627 14.8822 6.59857 14.5179C6.60748 14.411 6.65205 14.3731 6.75788 14.3619C7.21797 14.314 7.67583 14.255 8.13592 14.2082C8.2373 14.1982 8.28297 14.1648 8.31194 14.0634C8.39215 13.7804 8.48127 13.4986 8.58265 13.2234C8.62387 13.1109 8.60047 13.053 8.51358 12.9817C8.16489 12.6931 7.82511 12.3946 7.47754 12.1072C7.39399 12.0381 7.38173 11.9824 7.43632 11.8899C7.62682 11.5658 7.81286 11.2405 7.99556 10.9118C8.04569 10.8216 8.10028 10.8149 8.19274 10.845C8.63723 10.9898 9.08507 11.1235 9.52957 11.2672C9.6198 11.2962 9.67216 11.285 9.73566 11.2093C9.91724 10.9909 10.1055 10.777 10.3027 10.572C10.3807 10.4907 10.384 10.4328 10.3361 10.337C10.1334 9.92703 9.94287 9.51149 9.739 9.10265C9.68998 9.00461 9.70335 8.95226 9.78913 8.88987C10.0933 8.6693 10.394 8.44426 10.6915 8.21589C10.7806 8.14793 10.8397 8.15239 10.9243 8.22926C11.2585 8.53338 11.6039 8.82526 11.937 9.1305C12.0317 9.21739 12.1007 9.21962 12.2121 9.16169C12.4416 9.04138 12.6778 8.93555 12.9173 8.83751C13.0176 8.79629 13.0554 8.75173 13.0499 8.63922C13.0298 8.18247 13.0254 7.72461 13.0075 7.26786C13.0031 7.16537 13.0243 7.10855 13.1334 7.08516C13.51 7.00383 13.8865 6.91694 14.2619 6.82893C14.3577 6.80665 14.4068 6.83561 14.4469 6.92696C14.6318 7.34472 14.829 7.75691 15.0128 8.17578C15.0618 8.28607 15.1175 8.32172 15.2412 8.31281C15.4729 8.29721 15.7057 8.30835 15.9452 8.30835C15.9486 8.31504 15.9608 8.32729 15.963 8.34066C16.0588 8.91883 16.3485 9.39341 16.754 9.80448C16.8387 9.88915 16.8866 9.9805 16.8364 10.1075C14.8446 9.81117 13.0811 10.298 11.6139 11.6939C10.4208 12.8279 9.80584 14.2416 9.76685 15.8893C9.67773 19.5165 12.7825 22.2737 16.1101 22.0186Z" fill="#0A0A0A"/>
<path d="M16.8372 6.53157C16.9664 6.9783 17.1001 7.4239 17.2226 7.87397C17.2516 7.98314 17.305 8.04776 17.3997 8.10123C18.0136 8.44101 18.6564 8.29061 19.0574 7.70352C19.0897 7.65673 19.0986 7.57875 19.0864 7.52083C18.9961 7.06742 18.8992 6.61624 18.8045 6.16395C18.7934 6.11047 18.7834 6.05589 18.7666 5.96899C18.868 6.00576 18.9527 6.03026 19.0307 6.06591C20.2851 6.64186 20.6393 8.06669 19.7915 9.16289C19.2056 9.92154 19.3036 9.69094 19.3014 10.6256C19.2947 13.7449 19.298 16.8641 19.288 19.9834C19.2869 20.3243 19.3715 20.6239 19.5554 20.9025C19.6734 21.0796 19.806 21.2478 19.9185 21.4294C20.1302 21.7692 20.3552 22.1034 20.5324 22.461C20.9212 23.2464 20.7563 24.1431 20.1246 24.8283C19.4763 25.5312 18.5739 25.7685 17.7273 25.4566C16.8594 25.138 16.2489 24.2779 16.191 23.3656C16.1576 22.852 16.2935 22.403 16.5631 21.9819C16.787 21.631 17.0165 21.2834 17.2404 20.9325C17.363 20.7409 17.4142 20.5348 17.412 20.2998C17.3841 16.9321 17.3652 13.5633 17.3385 10.1956C17.3374 10.092 17.2995 9.97279 17.2382 9.88924C17.0689 9.66086 16.8761 9.45142 16.6979 9.22973C16.1933 8.60143 16.113 7.58321 16.5152 6.88695C16.5898 6.75772 16.6923 6.64298 16.7815 6.52266C16.8004 6.52378 16.8182 6.52712 16.8372 6.53157ZM19.9208 23.3934C19.9052 23.3555 19.8996 23.3299 19.8851 23.311C19.7548 23.1361 19.708 22.9422 19.7225 22.7261C19.7247 22.686 19.6757 22.6236 19.6356 22.6047C19.4573 22.5222 19.3314 22.3964 19.2457 22.2192C19.2234 22.1747 19.1443 22.129 19.0942 22.1323C18.8981 22.1457 18.7276 22.0956 18.5639 21.9897C18.5193 21.9608 18.4235 21.9652 18.3767 21.9953C18.2174 22.0989 18.0514 22.1446 17.8598 22.1346C17.8075 22.1312 17.725 22.1825 17.7005 22.2304C17.6147 22.4008 17.4933 22.5234 17.3229 22.6102C17.275 22.6348 17.2271 22.7194 17.2304 22.7729C17.2415 22.9634 17.2059 23.1361 17.0878 23.2865C17.0299 23.36 17.0444 23.4257 17.0956 23.4926C17.2059 23.6363 17.2493 23.7989 17.2271 23.9772C17.2159 24.0707 17.2505 24.1309 17.3373 24.1676C17.5022 24.2378 17.627 24.3503 17.6938 24.5208C17.7317 24.6188 17.803 24.6456 17.8988 24.6311C18.0726 24.6066 18.2308 24.6489 18.3678 24.7581C18.4503 24.8227 18.5227 24.8149 18.6006 24.7559C18.7399 24.6489 18.8981 24.6066 19.0708 24.63C19.1721 24.6444 19.2334 24.6021 19.2702 24.5097C19.3348 24.3459 19.4529 24.2345 19.6122 24.1621C19.6523 24.1443 19.7147 24.1097 19.7147 24.0819C19.7202 23.8301 19.7414 23.5861 19.9208 23.3934ZM18.0626 15.2477C18.0604 15.2477 18.0581 15.2477 18.0559 15.2477C18.0559 16.5734 18.0537 17.899 18.0592 19.2247C18.0592 19.364 18.0759 19.5133 18.1305 19.6392C18.1684 19.726 18.2742 19.8185 18.3656 19.8397C18.497 19.8709 18.5773 19.7494 18.614 19.6369C18.653 19.5188 18.6786 19.3907 18.6809 19.266C18.6875 18.6566 18.6853 18.0472 18.6853 17.4378C18.6864 15.3802 18.6887 13.3238 18.6831 11.2662C18.6831 11.1147 18.6474 10.9509 18.5828 10.8139C18.4826 10.6044 18.2664 10.6067 18.164 10.8172C18.1027 10.9442 18.0681 11.0979 18.0681 11.2405C18.0592 12.5763 18.0626 13.912 18.0626 15.2477Z" fill="#0A0A0A"/>
<path d="M11.7742 13.7804C11.6873 13.7269 11.5747 13.6768 11.4845 13.5988C11.3163 13.4528 11.2361 13.2635 11.2918 13.0395C11.3441 12.829 11.5124 12.7477 11.704 12.7009C11.7485 12.6897 11.7942 12.6831 11.8388 12.6786C12.2521 12.6363 12.3768 12.7198 12.4916 13.1276C12.5328 13.0919 12.5707 13.0641 12.6041 13.0317C12.8971 12.7499 13.189 12.4669 13.4819 12.1862C13.7694 11.9099 14.1125 11.7673 14.5135 11.7673C15.2956 11.7673 16.0787 11.7673 16.8608 11.7673C16.9064 11.7673 16.951 11.7673 17.0101 11.7673C17.0101 11.9734 17.0101 12.1673 17.0101 12.3789C16.9499 12.3789 16.8964 12.3789 16.8418 12.3789C16.0698 12.3789 15.2978 12.38 14.5247 12.3778C14.3008 12.3767 14.0924 12.4402 13.9342 12.5861C13.4719 13.0128 13.0252 13.4562 12.5417 13.923C14.0568 13.923 15.5329 13.923 17.029 13.923C17.029 14.6928 17.029 15.4414 17.029 16.2056C15.9718 16.2056 14.9135 16.2056 13.8284 16.2056C13.8373 16.3059 13.8407 16.3894 13.854 16.4718C13.9075 16.8027 14.0234 17.1091 14.2306 17.3764C14.362 17.5469 14.5247 17.6349 14.753 17.6315C15.4593 17.6215 16.1656 17.6271 16.8719 17.6271C16.9265 17.6271 16.9822 17.6271 17.0502 17.6271C17.0502 17.958 17.0502 18.2754 17.0502 18.613C15.7356 18.613 14.4177 18.613 13.0909 18.613C13.0865 18.6765 13.0831 18.7211 13.0798 18.7656C13.0597 19.1132 12.8291 19.3572 12.4793 19.3739C12.2053 19.3872 11.9301 19.3872 11.6572 19.3728C11.294 19.3538 11.0612 19.0965 11.0556 18.7344C11.0545 18.6832 11.0523 18.633 11.0556 18.5818C11.0723 18.3501 11.0422 18.1429 10.8829 17.9468C10.7314 17.7597 10.6835 17.5157 10.6835 17.2706C10.6835 16.7526 10.6702 16.2334 10.688 15.7165C10.7069 15.1618 10.9342 14.6861 11.3107 14.2806C11.4656 14.1157 11.6204 13.9475 11.7742 13.7804ZM12.8392 16.2847C12.8392 16.2813 12.8392 16.2791 12.8392 16.2758C12.9205 16.2758 13.0018 16.2836 13.082 16.2736C13.2157 16.258 13.4006 16.2724 13.4318 16.122C13.4519 16.0218 13.3661 15.8714 13.2848 15.7845C12.926 15.4024 12.4905 15.1272 12.0092 14.9234C11.7675 14.8209 11.548 14.8721 11.3642 15.0481C11.1626 15.2409 11.1046 15.4826 11.1904 15.7466C11.2706 15.9917 11.4433 16.1566 11.704 16.1867C12.0805 16.2312 12.4604 16.2535 12.8392 16.2847ZM13.4541 17.9602C13.2335 17.6382 13.0352 17.3452 12.8325 17.0567C12.8146 17.0311 12.7623 17.0166 12.7266 17.0166C12.3713 17.0144 12.017 17.0133 11.6616 17.0177C11.6193 17.0188 11.5636 17.0456 11.5391 17.079C11.421 17.2394 11.4221 17.4611 11.5435 17.6193C11.6928 17.8131 11.9023 17.939 12.1373 17.9524C12.5618 17.978 12.9884 17.9602 13.4541 17.9602Z" fill="#0A0A0A"/>
<path d="M19.9211 23.3932C19.7417 23.5859 19.7205 23.8299 19.7161 24.0817C19.7161 24.1095 19.6526 24.144 19.6136 24.1619C19.4543 24.2354 19.3362 24.3468 19.2716 24.5094C19.2348 24.6019 19.1736 24.6431 19.0722 24.6298C18.8984 24.6064 18.7402 24.6476 18.6021 24.7556C18.5241 24.8158 18.4517 24.8225 18.3692 24.7579C18.2322 24.6498 18.074 24.6064 17.9002 24.6309C17.8044 24.6442 17.7331 24.6175 17.6952 24.5206C17.6295 24.3513 17.5048 24.2376 17.3388 24.1674C17.2519 24.1307 17.2173 24.0705 17.2285 23.9769C17.2508 23.7987 17.2073 23.636 17.097 23.4923C17.0458 23.4266 17.0313 23.3598 17.0892 23.2862C17.2073 23.1359 17.243 22.9632 17.2318 22.7727C17.2285 22.7181 17.2764 22.6345 17.3243 22.61C17.4947 22.5231 17.6162 22.4006 17.7019 22.2302C17.7264 22.1823 17.8078 22.131 17.8612 22.1343C18.0517 22.1455 18.2177 22.0998 18.3781 21.9951C18.4238 21.965 18.5207 21.9617 18.5653 21.9895C18.7302 22.0954 18.8995 22.1455 19.0956 22.1321C19.1457 22.1288 19.2248 22.1745 19.2471 22.219C19.3329 22.3961 19.4587 22.522 19.637 22.6045C19.6771 22.6234 19.7261 22.6858 19.7239 22.7259C19.7105 22.942 19.7573 23.137 19.8865 23.3108C19.8999 23.3297 19.9055 23.3553 19.9211 23.3932Z" fill="white"/>
<path d="M18.0629 15.2477C18.0629 13.912 18.0595 12.5763 18.0673 11.2395C18.0684 11.098 18.1018 10.9443 18.1631 10.8162C18.2656 10.6056 18.4817 10.6034 18.582 10.8128C18.6466 10.9487 18.6823 11.1136 18.6823 11.2651C18.6878 13.3227 18.6856 15.3792 18.6845 17.4368C18.6845 18.0462 18.6867 18.6555 18.68 19.2649C18.6789 19.3885 18.6522 19.5178 18.6132 19.6359C18.5764 19.7484 18.4962 19.8698 18.3648 19.8386C18.2734 19.8163 18.1676 19.725 18.1297 19.6381C18.0751 19.5133 18.0595 19.3629 18.0584 19.2237C18.0539 17.898 18.0551 16.5723 18.0551 15.2466C18.0584 15.2477 18.0606 15.2477 18.0629 15.2477Z" fill="white"/>
<path d="M12.8391 16.2849C12.4604 16.2537 12.0805 16.2314 11.7028 16.188C11.4422 16.1579 11.2695 15.993 11.1893 15.748C11.1035 15.485 11.1614 15.2422 11.3631 15.0495C11.5469 14.8734 11.7663 14.8211 12.0081 14.9247C12.4893 15.1286 12.9249 15.4048 13.2836 15.7858C13.365 15.8727 13.4519 16.0231 13.4307 16.1234C13.3995 16.2738 13.2146 16.2582 13.0809 16.2749C13.0007 16.2849 12.9194 16.2771 12.838 16.2771C12.8391 16.2793 12.8391 16.2816 12.8391 16.2849Z" fill="white"/>
<path d="M13.4543 17.9602C12.9886 17.9602 12.5619 17.978 12.1375 17.9535C11.9024 17.9402 11.693 17.8143 11.5437 17.6204C11.4223 17.4634 11.4212 17.2406 11.5393 17.0801C11.5638 17.0467 11.6195 17.0189 11.6618 17.0189C12.0172 17.0144 12.3714 17.0144 12.7268 17.0178C12.7636 17.0178 12.8148 17.0322 12.8326 17.0579C13.0365 17.3453 13.2337 17.6383 13.4543 17.9602Z" fill="white"/>
<defs>
<linearGradient id="paint0_linear_2406_9397" x1="4.15895" y1="29.0837" x2="27.9355" y2="5.30712" gradientUnits="userSpaceOnUse">
<stop stop-color="#830309"/>
<stop offset="0.0141" stop-color="#860309"/>
<stop offset="0.1634" stop-color="#A20309"/>
<stop offset="0.3246" stop-color="#B80309"/>
<stop offset="0.5014" stop-color="#C70309"/>
<stop offset="0.7055" stop-color="#D00309"/>
<stop offset="1" stop-color="#D30309"/>
</linearGradient>
</defs>
</svg>
